<svg width="153" height="30" viewBox="0 0 153 30" fill="none" xmlns="http://www.w3.org/2000/svg">
<path d="M35.5992 23V0.619998H35.6292L46.9992 16.76L45.7692 16.52L57.1092 0.619998H57.1692V23H54.2892V7.22L54.4692 8.69L46.2792 20.27H46.2192L37.9092 8.69L38.4192 7.34V23H35.5992ZM66.6419 23.48C65.5219 23.48 64.5919 23.14 63.8519 22.46C63.1319 21.76 62.7519 20.86 62.7119 19.76V10.58H65.5019V18.77C65.5419 19.45 65.7319 20 66.0719 20.42C66.4319 20.84 66.9919 21.06 67.7519 21.08C68.4519 21.08 69.0719 20.88 69.6119 20.48C70.1719 20.06 70.6219 19.5 70.9619 18.8C71.3019 18.08 71.4719 17.27 71.4719 16.37V10.58H74.2619V23H71.7119L71.4719 19.94L71.6219 20.48C71.3819 21.06 71.0119 21.58 70.5119 22.04C70.0319 22.48 69.4619 22.83 68.8019 23.09C68.1419 23.35 67.4219 23.48 66.6419 23.48ZM82.5688 23.24C81.6888 23.24 80.8288 23.09 79.9888 22.79C79.1688 22.47 78.4888 22 77.9488 21.38L79.1188 19.76C79.6388 20.26 80.1688 20.64 80.7088 20.9C81.2688 21.14 81.8188 21.26 82.3588 21.26C82.7588 21.26 83.1288 21.21 83.4688 21.11C83.8088 21.01 84.0788 20.85 84.2788 20.63C84.4988 20.39 84.6088 20.07 84.6088 19.67C84.6088 19.23 84.4588 18.88 84.1588 18.62C83.8788 18.36 83.5088 18.15 83.0488 17.99C82.6088 17.83 82.1388 17.68 81.6388 17.54C80.6188 17.2 79.8388 16.73 79.2988 16.13C78.7588 15.53 78.4888 14.8 78.4888 13.94C78.4888 13.28 78.6488 12.67 78.9688 12.11C79.3088 11.53 79.7988 11.06 80.4388 10.7C81.0988 10.34 81.9088 10.16 82.8688 10.16C83.7288 10.16 84.4988 10.27 85.1788 10.49C85.8588 10.69 86.4988 11.03 87.0988 11.51L85.9888 13.25C85.6288 12.87 85.1988 12.59 84.6988 12.41C84.1988 12.23 83.7488 12.13 83.3488 12.11C83.0088 12.09 82.6788 12.14 82.3588 12.26C82.0588 12.38 81.8088 12.55 81.6088 12.77C81.4088 12.99 81.3088 13.25 81.3088 13.55C81.3088 13.97 81.4488 14.31 81.7288 14.57C82.0088 14.83 82.3688 15.04 82.8088 15.2C83.2688 15.34 83.7188 15.49 84.1588 15.65C84.7788 15.83 85.3288 16.07 85.8088 16.37C86.2888 16.67 86.6688 17.04 86.9488 17.48C87.2488 17.92 87.3988 18.47 87.3988 19.13C87.3988 19.87 87.2188 20.56 86.8588 21.2C86.5188 21.82 85.9888 22.32 85.2688 22.7C84.5688 23.06 83.6688 23.24 82.5688 23.24ZM91.3056 10.58H94.0956V23H91.3056V10.58ZM91.0956 6.08C91.0956 5.64 91.2656 5.27 91.6056 4.97C91.9656 4.67 92.3556 4.52 92.7756 4.52C93.1956 4.52 93.5656 4.67 93.8856 4.97C94.2256 5.27 94.3956 5.64 94.3956 6.08C94.3956 6.54 94.2256 6.92 93.8856 7.22C93.5656 7.5 93.1956 7.64 92.7756 7.64C92.3556 7.64 91.9656 7.49 91.6056 7.19C91.2656 6.89 91.0956 6.52 91.0956 6.08ZM109.003 21.86C108.443 22.3 107.773 22.65 106.993 22.91C106.213 23.17 105.433 23.3 104.653 23.3C103.293 23.3 102.103 23.03 101.083 22.49C100.063 21.95 99.2628 21.2 98.6828 20.24C98.1228 19.26 97.8428 18.11 97.8428 16.79C97.8428 15.47 98.1428 14.32 98.7428 13.34C99.3628 12.36 100.163 11.61 101.143 11.09C102.143 10.55 103.213 10.28 104.353 10.28C105.353 10.28 106.243 10.42 107.023 10.7C107.823 10.98 108.503 11.36 109.063 11.84L107.683 13.64C107.323 13.36 106.883 13.11 106.363 12.89C105.843 12.67 105.253 12.56 104.593 12.56C103.873 12.56 103.203 12.75 102.583 13.13C101.983 13.49 101.503 13.99 101.143 14.63C100.803 15.27 100.633 15.99 100.633 16.79C100.633 17.55 100.813 18.26 101.173 18.92C101.533 19.56 102.033 20.07 102.673 20.45C103.313 20.81 104.043 20.99 104.863 20.99C105.403 20.99 105.893 20.91 106.333 20.75C106.793 20.59 107.203 20.37 107.563 20.09L109.003 21.86ZM111.194 21.41C111.194 20.97 111.354 20.6 111.674 20.3C112.014 19.98 112.384 19.82 112.784 19.82C113.144 19.82 113.484 19.98 113.804 20.3C114.144 20.6 114.314 20.97 114.314 21.41C114.314 21.89 114.144 22.28 113.804 22.58C113.484 22.86 113.144 23 112.784 23C112.384 23 112.014 22.86 111.674 22.58C111.354 22.28 111.194 21.89 111.194 21.41ZM134.264 21.38C133.904 21.62 133.414 21.89 132.794 22.19C132.174 22.49 131.444 22.74 130.604 22.94C129.784 23.14 128.884 23.24 127.904 23.24C126.224 23.22 124.704 22.92 123.344 22.34C122.004 21.76 120.864 20.97 119.924 19.97C118.984 18.97 118.254 17.82 117.734 16.52C117.234 15.2 116.984 13.8 116.984 12.32C116.984 10.7 117.244 9.21 117.764 7.85C118.304 6.47 119.054 5.28 120.014 4.28C120.974 3.26 122.104 2.47 123.404 1.91C124.724 1.35 126.164 1.07 127.724 1.07C129.024 1.07 130.204 1.25 131.264 1.61C132.324 1.95 133.234 2.36 133.994 2.84L132.824 5.54C132.224 5.14 131.494 4.76 130.634 4.4C129.794 4.04 128.854 3.86 127.814 3.86C126.754 3.86 125.754 4.07 124.814 4.49C123.874 4.91 123.044 5.5 122.324 6.26C121.604 7.02 121.034 7.91 120.614 8.93C120.214 9.93 120.014 11.01 120.014 12.17C120.014 13.35 120.194 14.45 120.554 15.47C120.934 16.47 121.464 17.34 122.144 18.08C122.844 18.82 123.684 19.4 124.664 19.82C125.644 20.24 126.744 20.45 127.964 20.45C129.064 20.45 130.044 20.28 130.904 19.94C131.764 19.6 132.474 19.22 133.034 18.8L134.264 21.38ZM137.394 16.67C137.394 15.43 137.684 14.31 138.264 13.31C138.864 12.31 139.684 11.52 140.724 10.94C141.764 10.36 142.944 10.07 144.264 10.07C145.624 10.07 146.814 10.36 147.834 10.94C148.854 11.52 149.644 12.31 150.204 13.31C150.764 14.31 151.044 15.43 151.044 16.67C151.044 17.91 150.764 19.04 150.204 20.06C149.644 21.06 148.844 21.85 147.804 22.43C146.784 23.01 145.594 23.3 144.234 23.3C142.914 23.3 141.734 23.03 140.694 22.49C139.674 21.93 138.864 21.16 138.264 20.18C137.684 19.18 137.394 18.01 137.394 16.67ZM140.184 16.7C140.184 17.5 140.364 18.23 140.724 18.89C141.084 19.53 141.564 20.04 142.164 20.42C142.784 20.8 143.464 20.99 144.204 20.99C144.984 20.99 145.674 20.8 146.274 20.42C146.894 20.04 147.374 19.53 147.714 18.89C148.054 18.23 148.224 17.5 148.224 16.7C148.224 15.9 148.054 15.18 147.714 14.54C147.374 13.88 146.894 13.36 146.274 12.98C145.674 12.58 144.984 12.38 144.204 12.38C143.444 12.38 142.754 12.58 142.134 12.98C141.534 13.38 141.054 13.91 140.694 14.57C140.354 15.21 140.184 15.92 140.184 16.7Z" fill="white"/>
<rect width="7.1875" height="23" rx="3.59375" fill="white"/>
<rect x="18.2083" width="7.1875" height="23" rx="3.59375" fill="white"/>
<rect x="9.10413" y="2.39575" width="7.1875" height="13.8958" rx="3.59375" fill="white"/>
</svg>
